<?xml version="1.0" encoding="UTF-8"?>
<!DOCTYPE svg PUBLIC "-//W3C//DTD SVG 1.1//EN" "http://www.w3.org/Graphics/SVG/1.1/DTD/svg11.dtd">
<!-- Creator: CorelDRAW -->
<svg xmlns="http://www.w3.org/2000/svg" xml:space="preserve" width="8.33333in" height="8.33333in" style="shape-rendering:geometricPrecision; text-rendering:geometricPrecision; image-rendering:optimizeQuality; fill-rule:evenodd; clip-rule:evenodd"
viewBox="0 0 8.33333 8.33333"
 xmlns:xlink="http://www.w3.org/1999/xlink">
 <defs>
  <style type="text/css">
   <![CDATA[
    .str0 {stroke:#373435;stroke-width:0.00694488}
    .fil0 {fill:#A45E4D}
    .fil1 {fill:#FEFEFE;fill-rule:nonzero}
   ]]>
  </style>
 </defs>
 <g id="Layer_x0020_1">
  <metadata id="CorelCorpID_0Corel-Layer"/>
  <rect class="fil0 str0" width="8.33333" height="8.33333"/>
  <path class="fil1" d="M2.76693 4.13503c0,0.667122 -0.0328307,1.24223 -0.0993071,1.72531 -0.0664764,0.483091 -0.158402,0.879913 -0.274122,1.19047 -0.116539,0.310555 -0.25278,0.540598 -0.408717,0.690126 -0.156756,0.149528 -0.323362,0.224291 -0.501461,0.224291 -0.413642,0 -0.724693,-0.320142 -0.933157,-0.962343 -0.208461,-0.642201 -0.312693,-1.57579 -0.312693,-2.80076 0,-0.665205 0.0336496,-1.24031 0.100126,-1.7234 0.0664803,-0.483087 0.157579,-0.879909 0.274122,-1.19046 0.116543,-0.310559 0.25278,-0.540598 0.408717,-0.690126 0.155937,-0.151445 0.323366,-0.226209 0.501461,-0.226209 0.413642,0 0.724693,0.320142 0.933157,0.960425 0.207642,0.640283 0.311874,1.57579 0.311874,2.80268zm-0.624567 0.0670984c0,-0.868409 -0.050063,-1.51636 -0.149374,-1.94194 -0.0993031,-0.427492 -0.26263,-0.640283 -0.490787,-0.640283 -0.11326,0 -0.210102,0.0555945 -0.290535,0.164866 -0.0804291,0.111185 -0.146087,0.272217 -0.198614,0.486921 -0.0517047,0.212787 -0.0902795,0.475421 -0.114079,0.787894 -0.0238031,0.312472 -0.0361142,0.670957 -0.0361142,1.07544 0,0.868409 0.0500669,1.51636 0.150193,1.94385 0.10013,0.427496 0.263453,0.640283 0.48915,0.640283 0.114079,0 0.211744,-0.0555906 0.292177,-0.164862 0.081248,-0.111185 0.147728,-0.274134 0.19861,-0.486921 0.0517087,-0.212791 0.0886417,-0.475421 0.11326,-0.787894 0.0238031,-0.31439 0.0361142,-0.672874 0.0361142,-1.07736z"/>
  <polygon id="1" class="fil1" points="3.1067,7.83679 3.1067,6.79202 4.54461,1.74835 3.15185,1.74835 3.15185,0.496535 5.29474,0.496535 5.29474,1.61991 3.84699,6.58498 5.31362,6.58498 5.31362,7.83679 "/>
  <polygon id="12" class="fil1" points="7.4204,7.83679 6.47494,4.28648 6.47494,7.83679 5.87417,7.83679 5.87417,0.496535 6.47494,0.496535 6.47494,3.83789 7.41548,0.496535 8.1295,0.496535 7.06175,3.99509 8.18449,7.83679 "/>
 </g>
</svg>
