<?xml version="1.0" encoding="UTF-8"?>
<!DOCTYPE svg PUBLIC "-//W3C//DTD SVG 1.1//EN" "http://www.w3.org/Graphics/SVG/1.1/DTD/svg11.dtd">
<!-- Creator: CorelDRAW -->
<svg xmlns="http://www.w3.org/2000/svg" xml:space="preserve" width="8.33333in" height="8.33333in" style="shape-rendering:geometricPrecision; text-rendering:geometricPrecision; image-rendering:optimizeQuality; fill-rule:evenodd; clip-rule:evenodd"
viewBox="0 0 8.33333 8.33333"
 xmlns:xlink="http://www.w3.org/1999/xlink">
 <defs>
  <style type="text/css">
   <![CDATA[
    .str0 {stroke:#373435;stroke-width:0.00694488}
    .fil0 {fill:#A45E4D}
    .fil1 {fill:#FEFEFE;fill-rule:nonzero}
   ]]>
  </style>
 </defs>
 <g id="Layer_x0020_1">
  <metadata id="CorelCorpID_0Corel-Layer"/>
  <rect class="fil0 str0" width="8.33333" height="8.33333"/>
  <polygon class="fil1" points="1.53875,4.45455 1.20661,4.45455 0.481583,2.3124 0.481583,4.45455 0.217287,4.45455 0.217287,0.0869843 0.481583,0.0869843 0.481583,2.11507 1.19193,0.0869843 1.50483,0.0869843 0.739291,2.16183 "/>
  <path id="1" class="fil1" d="M3.1959 2.27248c0,0.334213 -0.014685,0.638768 -0.0445551,0.913665 -0.0293661,0.274898 -0.0744291,0.511012 -0.134681,0.708346 -0.0607559,0.197331 -0.135689,0.350177 -0.224799,0.458539 -0.0896181,0.107224 -0.194929,0.161972 -0.315429,0.161972 -0.103795,0 -0.197969,-0.0444843 -0.283028,-0.132315 -0.0850591,-0.0878307 -0.157969,-0.223567 -0.21822,-0.406071 -0.060248,-0.182504 -0.106831,-0.415197 -0.13974,-0.698083 -0.0324016,-0.282882 -0.0486063,-0.618232 -0.0486063,-1.00606 0,-0.334213 0.015189,-0.639906 0.045063,-0.915945 0.030378,-0.276039 0.0754409,-0.513295 0.135185,-0.709484 0.0597441,-0.197335 0.134677,-0.350181 0.224799,-0.458543 0.0896181,-0.107224 0.194425,-0.161972 0.314417,-0.161972 0.103795,0 0.197969,0.0444843 0.283028,0.132315 0.0850591,0.0878307 0.157969,0.223567 0.21822,0.407213 0.060248,0.183646 0.106831,0.41748 0.139232,0.700362 0.0329094,0.282882 0.0491142,0.618232 0.0491142,1.00606zm-0.261256 0.0193898c0,-0.0752795 -0.00101181,-0.150563 -0.00354331,-0.224709 -0.00253543,-0.0752795 -0.00506299,-0.148283 -0.00810236,-0.219004l-0.82022 1.37335c0.014685,0.115209 0.0334173,0.222429 0.0562008,0.320524 0.0227835,0.0980984 0.050126,0.182504 0.0825276,0.252087 0.0318976,0.0707205 0.0688583,0.125472 0.10987,0.164252 0.0410118,0.0387835 0.0875906,0.0581732 0.13974,0.0581732 0.0673386,0 0.128602,-0.0365 0.183283,-0.1095 0.055189,-0.0741457 0.101768,-0.183646 0.140248,-0.328512 0.0384803,-0.144862 0.0683504,-0.323945 0.0891102,-0.539528 0.0207598,-0.214441 0.0308858,-0.463106 0.0308858,-0.74713zm-0.887055 -0.0399213c0,0.0695787 0.000507874,0.13802 0.00101575,0.207598 0.000503937,0.0695787 0.00202362,0.13574 0.00506299,0.200756l0.820217 -1.3665c-0.0146811,-0.114063 -0.0334134,-0.217862 -0.0562008,-0.311398 -0.0227795,-0.0935354 -0.050122,-0.17452 -0.0815118,-0.241819 -0.0318976,-0.068437 -0.0678465,-0.120909 -0.10835,-0.159693 -0.0405039,-0.0376378 -0.0860748,-0.0558898 -0.136705,-0.0558898 -0.0668307,0 -0.128094,0.0365 -0.182776,0.109504 -0.055189,0.0741417 -0.101768,0.183642 -0.140248,0.329646 -0.0384803,0.146004 -0.0683504,0.326228 -0.0891102,0.541811 -0.0207598,0.214445 -0.0313937,0.463106 -0.0313937,0.745988z"/>
  <path id="12" class="fil1" d="M4.91532 2.24282c0,0.391244 -0.0207598,0.73002 -0.0617677,1.01518 -0.0410118,0.285165 -0.0962008,0.52128 -0.166071,0.707209 -0.0698701,0.185925 -0.151386,0.323945 -0.244547,0.414055 -0.0936654,0.0901102 -0.192398,0.135736 -0.296189,0.135736 -0.124551,0 -0.232902,-0.0513268 -0.325559,-0.152846 -0.0926535,-0.100378 -0.169106,-0.24752 -0.229862,-0.43915 -0.0607559,-0.19163 -0.106327,-0.424323 -0.135689,-0.700362 -0.029874,-0.274898 -0.0445591,-0.585157 -0.0445591,-0.930776 0,-0.386681 0.0202559,-0.723173 0.0607598,-1.00833 0.0405039,-0.285165 0.0956929,-0.52128 0.165563,-0.707205 0.0693622,-0.185929 0.150878,-0.323949 0.244039,-0.414059 0.0926575,-0.0901102 0.191386,-0.135736 0.295177,-0.135736 0.124555,0 0.232902,0.0513268 0.325559,0.153988 0.0921457,0.102657 0.169106,0.248661 0.230366,0.43915 0.0612638,0.190488 0.107339,0.423185 0.137213,0.696941 0.030378,0.273756 0.0455669,0.582874 0.0455669,0.926209zm-0.274417 0.0433465c0,-0.256646 -0.00861024,-0.491622 -0.0263307,-0.703783 -0.0172126,-0.213303 -0.045063,-0.395807 -0.0835394,-0.549795 -0.0384803,-0.153988 -0.0880984,-0.272618 -0.149362,-0.357024 -0.0607559,-0.0855512 -0.134169,-0.127756 -0.220244,-0.127756 -0.0830354,0 -0.154421,0.045626 -0.214169,0.13574 -0.0597441,0.0901102 -0.108854,0.212161 -0.147335,0.367291 -0.0389843,0.155126 -0.0673386,0.336492 -0.0860709,0.545232 -0.0187323,0.207598 -0.0283543,0.428886 -0.0283543,0.662717 0,0.258929 0.00911417,0.493906 0.0268346,0.707209 0.0177205,0.212161 0.0455669,0.395803 0.0835394,0.547512 0.0379724,0.152846 0.0875945,0.271476 0.147843,0.355886 0.060252,0.0855472 0.132654,0.127752 0.217713,0.127752 0.0830354,0 0.154929,-0.045626 0.215181,-0.13574 0.060252,-0.0901102 0.110374,-0.213299 0.149362,-0.367287 0.0389843,-0.15513 0.0678425,-0.336492 0.0865787,-0.542953 0.0187323,-0.207598 0.0283543,-0.428886 0.0283543,-0.665z"/>
  <polygon id="123" class="fil1" points="6.48184,0.554654 5.49252,3.90019 6.50108,3.90019 6.50108,4.45455 5.16139,4.45455 5.16139,4.00969 6.15679,0.627654 5.18822,0.627654 5.18822,0.0869843 6.48184,0.0869843 "/>
  <polygon id="1234" class="fil1" points="8.22,4.45455 7.88786,4.45455 7.16283,2.3124 7.16283,4.45455 6.89853,4.45455 6.89853,0.0869843 7.16283,0.0869843 7.16283,2.11507 7.87317,0.0869843 8.18607,0.0869843 7.42054,2.16183 "/>
  <path class="fil1" d="M0.522209 6.87094l-0.0685906 0 0 -0.319087c0,-0.0385709 -0.00564961,-0.0672835 -0.0170787,-0.086315 -0.0114331,-0.0192008 -0.0278386,-0.0287126 -0.0490866,-0.0287126 -0.00914567,0 -0.0177559,0.00169685 -0.0258228,0.00475591 -0.00793307,0.00322835 -0.0162717,0.00866535 -0.0250157,0.0164803 -0.0086063,0.0078189 -0.0181575,0.0183504 -0.028374,0.0316024 -0.0102205,0.0132559 -0.0220591,0.0299055 -0.035374,0.0497835l0 0.331492 -0.0685866 0 0 -0.703421 0.0685866 0 0 0.20372 -0.00241732 0.0785c0.0107559,-0.0161417 0.0213819,-0.0299055 0.0317402,-0.0409488 0.0103543,-0.0112126 0.0207087,-0.0202205 0.031063,-0.027185 0.0103583,-0.0069685 0.0209803,-0.0118937 0.0317402,-0.0149528 0.0107559,-0.00288976 0.0219213,-0.00441732 0.0334882,-0.00441732 0.0394055,0 0.0699331,0.015122 0.0914488,0.0455354 0.0215197,0.0304134 0.0322795,0.0761181 0.0322795,0.137114l0 0.326055z"/>
  <path id="1" class="fil1" d="M0.966689 6.86397c-0.0154685,0.0049252 -0.0316063,0.00849213 -0.0481457,0.0107008 -0.0165472,0.00220866 -0.0333543,0.00322835 -0.0504331,0.00322835 -0.0496299,0 -0.0866102,-0.0141024 -0.111087,-0.0424764 -0.0243465,-0.028374 -0.0365827,-0.0720394 -0.0365827,-0.130827l0 -0.260811 -0.110681 0 0 -0.0725512 0.110681 0 0 -0.137453 0.0685906 -0.0224291 0 0.159882 0.177657 0 0 0.0725512 -0.177657 0 0 0.253843c0,0.0358504 0.0075315,0.0626969 0.0225906,0.0805354 0.0150669,0.0176732 0.0373898,0.0265079 0.0668425,0.0265079 0.0125079,0 0.0263583,-0.00118898 0.0412874,-0.00374016 0.015063,-0.00237795 0.0306614,-0.00628346 0.046937,-0.0115512l0 0.0745906z"/>
  <path id="12" class="fil1" d="M1.41036 6.86397c-0.0154685,0.0049252 -0.0316063,0.00849213 -0.0481457,0.0107008 -0.0165472,0.00220866 -0.0333543,0.00322835 -0.0504331,0.00322835 -0.0496299,0 -0.0866102,-0.0141024 -0.111087,-0.0424764 -0.0243465,-0.028374 -0.0365827,-0.0720394 -0.0365827,-0.130827l0 -0.260811 -0.110681 0 0 -0.0725512 0.110681 0 0 -0.137453 0.0685906 -0.0224291 0 0.159882 0.177657 0 0 0.0725512 -0.177657 0 0 0.253843c0,0.0358504 0.0075315,0.0626969 0.0225906,0.0805354 0.0150669,0.0176732 0.0373898,0.0265079 0.0668425,0.0265079 0.0125079,0 0.0263583,-0.00118898 0.0412874,-0.00374016 0.015063,-0.00237795 0.0306614,-0.00628346 0.046937,-0.0115512l0 0.0745906z"/>
  <path id="123" class="fil1" d="M1.87326 6.61217c0,0.0443465 -0.00483858,0.0832559 -0.0146575,0.11639 -0.00994882,0.0331299 -0.0235354,0.0608268 -0.0408858,0.0825748 -0.0173465,0.0219173 -0.0377913,0.0383976 -0.0614567,0.0492717 -0.0235394,0.0110433 -0.0492244,0.0164803 -0.0767953,0.0164803 -0.0126417,0 -0.0251496,-0.000846457 -0.0376535,-0.00237795 -0.0125079,-0.00169685 -0.0251535,-0.00458661 -0.0379291,-0.00849606l0 0.208988 -0.0685866 0 0 -0.70376 0.0610591 0 0.00430315 0.0835945c0.0197677,-0.0341496 0.040748,-0.0582756 0.0630709,-0.0720394 0.0223268,-0.0137638 0.0465354,-0.0205591 0.0724921,-0.0205591 0.0225945,0 0.0423622,0.00594488 0.0594409,0.0178386 0.0170827,0.0120669 0.0314685,0.0288858 0.0430354,0.0506339 0.0115669,0.021748 0.0201732,0.0479134 0.0259567,0.0786693 0.00578346,0.0305827 0.0086063,0.0649016 0.0086063,0.102791zm-0.070063 0.00390945c0,-0.0261654 -0.00148031,-0.0502913 -0.0045748,-0.0722126 -0.00296063,-0.0219173 -0.00780315,-0.0406063 -0.0143937,-0.0562362 -0.00658661,-0.0156339 -0.0149252,-0.0276969 -0.0251457,-0.0365315 -0.0102244,-0.00883465 -0.0224606,-0.013252 -0.0367165,-0.013252 -0.0086063,0 -0.0174843,0.00169685 -0.0263583,0.00526772 -0.00887795,0.00339764 -0.0181535,0.00934252 -0.0277047,0.0173268 -0.00968504,0.00815748 -0.0197717,0.0190315 -0.0303937,0.0324528 -0.010622,0.0134252 -0.0220591,0.0300748 -0.0340276,0.0499528l0 0.242461c0.0125079,0.00662598 0.0258228,0.0118937 0.0396772,0.0156299 0.0139843,0.00390945 0.0275709,0.00577953 0.0410157,0.00577953 0.0369843,0 0.0660315,-0.0158031 0.0871496,-0.0475748 0.0209764,-0.0316024 0.0314724,-0.0793465 0.0314724,-0.143063z"/>
  <path id="1234" class="fil1" d="M2.29219 6.7345c0,0.0176693 -0.00242126,0.0334724 -0.00712992,0.0474055 -0.00470472,0.0139331 -0.0111614,0.0261654 -0.0192283,0.0370394 -0.00820472,0.0107047 -0.0176181,0.0200512 -0.028378,0.0275236 -0.0107598,0.00764567 -0.0223228,0.0139331 -0.034563,0.0190315 -0.0122402,0.00492913 -0.024748,0.00866535 -0.0376575,0.010874 -0.0127756,0.00237795 -0.0254173,0.00356693 -0.0377913,0.00356693 -0.0267638,0 -0.0513701,-0.00152756 -0.0738346,-0.00458661 -0.0224567,-0.00288976 -0.0445118,-0.00781496 -0.0660276,-0.0144409l0 -0.0795197c0.023126,0.00815748 0.046126,0.0146142 0.0689882,0.0188622 0.0228661,0.00424803 0.0455906,0.00645669 0.068185,0.00645669 0.032815,0 0.0571575,-0.0056063 0.0728937,-0.0169921 0.0157362,-0.0112126 0.0236693,-0.0273543 0.0236693,-0.048252 0,-0.00883858 -0.00134646,-0.0169921 -0.00376772,-0.0241299 -0.00255512,-0.00713386 -0.00712598,-0.0139291 -0.0135787,-0.0203858 -0.00659449,-0.00645669 -0.016815,-0.0132559 -0.0305315,-0.0202205 -0.0138504,-0.00696457 -0.0326811,-0.0147835 -0.0566181,-0.0237874 -0.0178898,-0.00662598 -0.0342953,-0.0142717 -0.0494921,-0.0227677 -0.015063,-0.00832677 -0.0281063,-0.0183504 -0.0391339,-0.0300748 -0.0110315,-0.0115512 -0.0197717,-0.0251457 -0.0259567,-0.0407756 -0.00632283,-0.0156339 -0.00955118,-0.0339843 -0.00955118,-0.0552205 0,-0.0139331 0.00255512,-0.0292244 0.00766535,-0.045878 0.00524409,-0.0164803 0.0138543,-0.0319409 0.0262283,-0.0462126 0.0123701,-0.0142717 0.0290472,-0.0261654 0.0500276,-0.0356811 0.0211142,-0.00934646 0.0473386,-0.0141024 0.078811,-0.0141024 0.0154646,0 0.0326772,0.00101969 0.0516417,0.00322835 0.0189606,0.00220866 0.0385984,0.00594488 0.0591732,0.0112126l0 0.0771378c-0.0216496,-0.00662598 -0.0420945,-0.0115512 -0.0613228,-0.0147795 -0.0193701,-0.00305906 -0.0360433,-0.00458661 -0.0502992,-0.00458661 -0.0170827,0 -0.0313346,0.00152756 -0.0430354,0.0049252 -0.0117047,0.00322835 -0.021252,0.00781496 -0.028378,0.0137638 -0.00726378,0.00577559 -0.0125079,0.0125709 -0.0156024,0.0203898 -0.00309449,0.00781496 -0.00470866,0.0161378 -0.00470866,0.0251457 0,0.00883465 0.00134646,0.0169882 0.00417323,0.0242953 0.00268898,0.00730709 0.00779921,0.0144409 0.0153307,0.0212402 0.00739764,0.00679528 0.0178858,0.0135906 0.0313346,0.0203898 0.013315,0.00679528 0.0307953,0.0141024 0.052315,0.0220866 0.0234016,0.00866535 0.0431732,0.0176693 0.0591732,0.027185 0.0160039,0.00934646 0.0290512,0.019878 0.0390039,0.0316024 0.00994882,0.0115551 0.0170787,0.0246378 0.0215157,0.039248 0.00430709,0.0146142 0.00645669,0.0312638 0.00645669,0.0497835z"/>
  <path id="12345" class="fil1" d="M2.58134 6.36223c0.00820472,0 0.0160039,0.00203937 0.0232677,0.00611811 0.00739764,0.00424409 0.0138543,0.00985433 0.0193661,0.0168189 0.00551181,0.0069685 0.00995276,0.0149528 0.0131772,0.0242953 0.00322835,0.00934646 0.00498031,0.0190315 0.00498031,0.0293976 0,0.0107008 -0.00175197,0.0205591 -0.00498031,0.029563 -0.00322441,0.00917323 -0.00766535,0.0171614 -0.0131772,0.024126 -0.00551181,0.0069685 -0.0119685,0.0125748 -0.0193661,0.0164803 -0.00726378,0.00407874 -0.015063,0.00594882 -0.0232677,0.00594882 -0.00833465,0 -0.0161339,-0.00187008 -0.0233976,-0.00594882 -0.00726378,-0.00390551 -0.0135866,-0.00951181 -0.0190984,-0.0164803 -0.00551575,-0.00696457 -0.0098189,-0.0149528 -0.0130433,-0.024126 -0.00309449,-0.00900394 -0.00470866,-0.0188622 -0.00470866,-0.029563 0,-0.0103661 0.00161417,-0.0200512 0.00470866,-0.0293976 0.00322441,-0.00934252 0.00752756,-0.0173268 0.0130433,-0.0242953 0.00551181,-0.00696457 0.0118346,-0.0125748 0.0190984,-0.0168189 0.00726378,-0.00407874 0.015063,-0.00611811 0.0233976,-0.00611811zm0 0.364791c0.00820472,0 0.0160039,0.00220866 0.0232677,0.0062874 0.00739764,0.00407874 0.0138543,0.00968504 0.0193661,0.0166496 0.00551181,0.0069685 0.00995276,0.015122 0.0131772,0.0244685 0.00322835,0.00917323 0.00498031,0.0190315 0.00498031,0.0292244 0,0.0107047 -0.00175197,0.0205591 -0.00498031,0.0297323 -0.00322441,0.00917717 -0.00766535,0.0171614 -0.0131772,0.0241299 -0.00551181,0.00696457 -0.0119685,0.0124016 -0.0193661,0.0164803 -0.00726378,0.00390551 -0.015063,0.00594488 -0.0232677,0.00594488 -0.00833465,0 -0.0161339,-0.00203937 -0.0233976,-0.00594488 -0.00726378,-0.00407874 -0.0135866,-0.00951575 -0.0190984,-0.0164803 -0.00551575,-0.0069685 -0.0098189,-0.0149528 -0.0130433,-0.0241299 -0.00309449,-0.00917323 -0.00470866,-0.0190276 -0.00470866,-0.0297323 0,-0.0101929 0.00161417,-0.0200512 0.00470866,-0.0292244 0.00322441,-0.00934646 0.00752756,-0.0175 0.0130433,-0.0244685 0.00551181,-0.00696457 0.0118346,-0.0125709 0.0190984,-0.0166496 0.00726378,-0.00407874 0.015063,-0.0062874 0.0233976,-0.0062874z"/>
  <polygon id="123456" class="fil1" points="3.18425,6.16752 2.91393,6.97798 2.84857,6.97798 3.11889,6.16752 "/>
  <polygon id="1234567" class="fil1" points="3.62792,6.16752 3.3576,6.97798 3.29224,6.97798 3.56256,6.16752 "/>
  <polygon id="12345678" class="fil1" points="4.10306,6.87094 4.01484,6.87094 3.82225,6.55185 3.82225,6.87094 3.75205,6.87094 3.75205,6.22036 3.82225,6.22036 3.82225,6.52246 4.01094,6.22036 4.09405,6.22036 3.89071,6.52942 "/>
  <path id="123456789" class="fil1" d="M4.54324 6.5459c0,0.0497835 -0.00389764,0.0951496 -0.0118307,0.136098 -0.00779921,0.0409488 -0.0197677,0.0761181 -0.0357756,0.105512 -0.0161378,0.0293937 -0.0360433,0.0521614 -0.0597126,0.0683031 -0.0238031,0.0159724 -0.0517756,0.024126 -0.0837835,0.024126 -0.0275709,0 -0.0525827,-0.00662598 -0.0751811,-0.0197087 -0.0225906,-0.0130827 -0.0419606,-0.0333031 -0.0579606,-0.0604882 -0.0160039,-0.027185 -0.028378,-0.0618465 -0.037122,-0.103984 -0.0086063,-0.0421339 -0.0129094,-0.0920866 -0.0129094,-0.149858 0,-0.0497835 0.00403543,-0.0953189 0.0119685,-0.136437 0.00807087,-0.0411142 0.0200433,-0.0764567 0.0359094,-0.105681 0.0158701,-0.0293937 0.0357756,-0.0521614 0.0597126,-0.0683031 0.0238031,-0.0159724 0.0516417,-0.024126 0.0835157,-0.024126 0.0275709,0 0.0525827,0.00662598 0.0751811,0.0197087 0.0225906,0.0130827 0.0419567,0.0333031 0.0579606,0.0606575 0.0160079,0.0273543 0.028378,0.062185 0.0369843,0.104323 0.00874016,0.0421378 0.0130433,0.0920906 0.0130433,0.149858zm-0.0693898 0.00288976c0,-0.0112126 -0.000271654,-0.0224291 -0.000944882,-0.0334724 -0.000669291,-0.0112126 -0.00134252,-0.0220866 -0.00214961,-0.032622l-0.21787 0.204571c0.00390157,0.0171575 0.00887795,0.0331299 0.0149291,0.0477441 0.00605118,0.0146102 0.013311,0.027185 0.0219213,0.0375472 0.00847244,0.0105354 0.0182874,0.0186929 0.0291811,0.0244685 0.0108937,0.00577559 0.0232677,0.00866535 0.0371181,0.00866535 0.0178898,0 0.0341614,-0.00543701 0.048685,-0.016311 0.0146614,-0.0110433 0.0270354,-0.0273543 0.037252,-0.0489331 0.0102205,-0.0215787 0.0181575,-0.0482559 0.0236732,-0.0803661 0.00551181,-0.0319449 0.00820472,-0.0689843 0.00820472,-0.111291zm-0.235626 -0.00594882c0,0.0103661 0.000137795,0.0205591 0.000271654,0.0309252 0.000133858,0.0103661 0.000535433,0.0202205 0.00134252,0.0299055l0.21787 -0.203551c-0.00390157,-0.0169921 -0.00887795,-0.0324528 -0.0149291,-0.0463858 -0.00605118,-0.0139331 -0.013311,-0.0259961 -0.0216496,-0.0360197 -0.00847638,-0.0101969 -0.0180236,-0.0180118 -0.0287795,-0.0237874 -0.0107598,-0.0056063 -0.0228661,-0.00832677 -0.036315,-0.00832677 -0.017748,0 -0.0340236,0.00543701 -0.0485472,0.016311 -0.0146575,0.0110472 -0.0270354,0.0273583 -0.0372559,0.0491063 -0.0102205,0.021748 -0.0181535,0.0485906 -0.0236654,0.0807047 -0.00551575,0.0319409 -0.00834252,0.0689843 -0.00834252,0.111118z"/>
  <path id="12345678910" class="fil1" d="M4.99996 6.54148c0,0.0582795 -0.00551575,0.10874 -0.0164094,0.15122 -0.0108937,0.0424764 -0.0255512,0.0776457 -0.0441142,0.105343 -0.0185591,0.0276929 -0.0402126,0.048252 -0.0649567,0.0616772 -0.0248819,0.0134213 -0.0511024,0.0202165 -0.0786732,0.0202165 -0.0330866,0 -0.0618622,-0.00764567 -0.0864764,-0.0227677 -0.0246102,-0.0149488 -0.0449173,-0.0368701 -0.0610551,-0.0654134 -0.0161417,-0.0285433 -0.0282441,-0.0632047 -0.0360433,-0.104323 -0.00793307,-0.0409488 -0.0118346,-0.0871654 -0.0118346,-0.138646 0,-0.0575984 0.00537795,-0.10772 0.0161378,-0.150201 0.0107559,-0.0424764 0.0254173,-0.0776457 0.0439764,-0.105343 0.0184252,-0.0276929 0.0400787,-0.048252 0.0648228,-0.0616772 0.0246102,-0.0134213 0.0508386,-0.0202165 0.0784055,-0.0202165 0.0330866,0 0.0618661,0.00764567 0.0864764,0.022937 0.0244764,0.0152913 0.0449173,0.0370394 0.0611929,0.0654134 0.0162717,0.028374 0.0285079,0.0630354 0.0364449,0.103815 0.00807087,0.0407795 0.0121063,0.0868228 0.0121063,0.137965zm-0.0728937 0.00645669c0,-0.0382283 -0.0022874,-0.0732283 -0.00699213,-0.104831 -0.0045748,-0.0317756 -0.0119724,-0.0589606 -0.0221929,-0.0818976 -0.0102205,-0.022937 -0.0234016,-0.0406063 -0.0396732,-0.0531811 -0.0161378,-0.0127441 -0.0356378,-0.0190315 -0.0585039,-0.0190315 -0.0220512,0 -0.0410157,0.00679921 -0.0568858,0.0202205 -0.0158701,0.0134213 -0.0289173,0.0316024 -0.0391378,0.0547126 -0.0103543,0.0231063 -0.0178858,0.050122 -0.0228622,0.0812126 -0.00497638,0.0309252 -0.0075315,0.0638858 -0.0075315,0.0987165 0,0.0385709 0.00242126,0.0735709 0.00712598,0.105346 0.00470866,0.0316024 0.0121063,0.0589567 0.0221929,0.0815551 0.0100866,0.0227677 0.0232677,0.040437 0.0392717,0.0530118 0.0160039,0.0127402 0.0352362,0.0190276 0.0578268,0.0190276 0.0220591,0 0.0411535,-0.00679528 0.0571575,-0.0202165 0.0160079,-0.0134252 0.0293189,-0.0317756 0.0396732,-0.0547126 0.0103583,-0.0231063 0.0180236,-0.050122 0.023,-0.080874 0.00497638,-0.0309252 0.0075315,-0.0638858 0.0075315,-0.0990591z"/>
  <polygon id="1234567891011" class="fil1" points="5.41606,6.29002 5.15327,6.78836 5.42117,6.78836 5.42117,6.87094 5.06532,6.87094 5.06532,6.80467 5.32972,6.30089 5.07244,6.30089 5.07244,6.22036 5.41606,6.22036 "/>
  <polygon id="123456789101112" class="fil1" points="5.87776,6.87094 5.78953,6.87094 5.59694,6.55185 5.59694,6.87094 5.52674,6.87094 5.52674,6.22036 5.59694,6.22036 5.59694,6.52246 5.78563,6.22036 5.86874,6.22036 5.6654,6.52942 "/>
  <path id="12345678910111213" class="fil1" d="M6.12763 6.71411c0.00887402,0 0.0173465,0.00220866 0.0254173,0.00645669 0.00807087,0.00441732 0.0149291,0.0103661 0.0208465,0.0180118 0.00591732,0.00764567 0.010622,0.0164803 0.0139843,0.0265039 0.00349606,0.0101969 0.00511417,0.0210709 0.00511417,0.032622 0,0.0113858 -0.00161811,0.0219213 -0.00511417,0.0319449 -0.0033622,0.00985433 -0.00806693,0.018689 -0.0139843,0.0261654 -0.00591732,0.00747638 -0.0127756,0.013252 -0.0208465,0.0176693 -0.00807087,0.00424803 -0.0165433,0.00645669 -0.0254173,0.00645669 -0.00914567,0 -0.017752,-0.00220866 -0.0255551,-0.00645669 -0.00793307,-0.00441732 -0.0147913,-0.0101929 -0.0207087,-0.0176693 -0.00591732,-0.00747638 -0.010626,-0.016311 -0.0139843,-0.0261654 -0.0035,-0.0100236 -0.00511417,-0.0205591 -0.00511417,-0.0319449 0,-0.0115512 0.00161417,-0.0224252 0.00511417,-0.032622 0.00335827,-0.0100236 0.00806693,-0.0188583 0.0139843,-0.0265039 0.00591732,-0.00764567 0.0127756,-0.0135945 0.0207087,-0.0180118 0.00780315,-0.00424803 0.0164094,-0.00645669 0.0255551,-0.00645669z"/>
  <path id="1234567891011121314" class="fil1" d="M6.72301 6.85259c-0.0178858,0.00849606 -0.0361772,0.0149528 -0.0550079,0.0190315 -0.018689,0.00424803 -0.0380591,0.00628346 -0.0580945,0.00628346 -0.0625394,0 -0.110685,-0.0214055 -0.144441,-0.0642244 -0.0337559,-0.042815 -0.0505669,-0.105343 -0.0505669,-0.187579 0,-0.0395866 0.00484252,-0.075437 0.0145236,-0.107551 0.0098189,-0.0322835 0.0234016,-0.0598071 0.0410197,-0.0827441 0.0176181,-0.0227677 0.0385984,-0.0404409 0.0630748,-0.0530118 0.0243425,-0.0124055 0.051374,-0.0185197 0.0806929,-0.0185197 0.0205748,0 0.0396732,0.00169685 0.0575591,0.00543701 0.0178898,0.00356693 0.0349685,0.00951575 0.0512402,0.0178386l0 0.082748c-0.0170787,-0.0113858 -0.0344291,-0.0195394 -0.0521811,-0.0246378 -0.017752,-0.00526772 -0.0360433,-0.00781496 -0.0550039,-0.00781496 -0.0176181,0 -0.0341614,0.00424803 -0.0498976,0.0127402 -0.0155984,0.00849606 -0.0293189,0.0205591 -0.0411496,0.0365315 -0.0118346,0.0159724 -0.0211142,0.0353425 -0.0279764,0.0582795 -0.00685827,0.022937 -0.0102205,0.0487638 -0.0102205,0.0776457 0,0.0603189 0.0117008,0.105685 0.0348346,0.135587 0.0232638,0.0300748 0.0555394,0.0450276 0.0968268,0.0450276 0.018563,0 0.0367165,-0.00254724 0.054063,-0.00781496 0.0174882,-0.00543701 0.0344331,-0.0134252 0.0507047,-0.0239567l0 0.0807047z"/>
  <path id="123456789101112131415" class="fil1" d="M7.20367 6.61709c0,0.0387402 -0.00430315,0.0744213 -0.0129094,0.106701 -0.00874409,0.0324528 -0.021252,0.0601496 -0.0375236,0.0832559 -0.0162717,0.022937 -0.0360433,0.0409488 -0.0594409,0.0536929 -0.0234055,0.0127402 -0.0498976,0.0191969 -0.0796181,0.0191969 -0.028378,0 -0.0537953,-0.0056063 -0.0762559,-0.0166496 -0.0224567,-0.0112126 -0.0414213,-0.0275236 -0.0571575,-0.0491024 -0.0155984,-0.0215787 -0.0275709,-0.0482559 -0.0357717,-0.0801969 -0.00833858,-0.0317756 -0.012374,-0.0684724 -0.012374,-0.109933 0,-0.0389094 0.00430315,-0.074248 0.0129094,-0.106362 0.00874409,-0.0319409 0.0211181,-0.0594685 0.0375236,-0.0825748 0.0162717,-0.0231063 0.0360433,-0.0409488 0.0594409,-0.053689 0.0234055,-0.0129134 0.0498976,-0.0192008 0.0796181,-0.0192008 0.028378,0 0.0537953,0.0056063 0.0762559,0.0166496 0.0224567,0.0110433 0.0414213,0.0273583 0.0570197,0.0487638 0.0157402,0.0214094 0.0275709,0.0480866 0.0359094,0.0798583 0.00833858,0.0319409 0.012374,0.0684724 0.012374,0.109591zm-0.0700669 0.00390945c0,-0.0307559 -0.00268898,-0.0577717 -0.00807087,-0.080878 -0.00538189,-0.0231063 -0.0130472,-0.0423071 -0.0231299,-0.0577677 -0.00995276,-0.0152913 -0.0220551,-0.0270157 -0.0364488,-0.0348307 -0.014252,-0.0078189 -0.0302598,-0.0117244 -0.047878,-0.0117244 -0.020437,0 -0.0379252,0.00509449 -0.0525827,0.0152913 -0.0145236,0.0100236 -0.0264961,0.0236181 -0.0357756,0.0406063 -0.00941339,0.0168228 -0.0161339,0.0365315 -0.0205748,0.0589606 -0.00430315,0.0224252 -0.00645669,0.045874 -0.00645669,0.0703425 0,0.0309213 0.00269291,0.057937 0.00807087,0.0812126 0.00538189,0.0232795 0.0130472,0.0424803 0.0229961,0.0579409 0.0100866,0.0154606 0.0221929,0.0270157 0.036311,0.0348307 0.014122,0.00781496 0.0302638,0.0117244 0.0480118,0.0117244 0.0205787,0 0.038063,-0.00509843 0.0527205,-0.015122 0.0145276,-0.0101969 0.0264961,-0.0236181 0.0357717,-0.0406102 0.00927953,-0.0169882 0.0161417,-0.0365276 0.0204449,-0.0589567 0.00443701,-0.0224291 0.00659055,-0.0460433 0.00659055,-0.0710197z"/>
  <path id="12345678910111213141516" class="fil1" d="M7.58507 6.87094l0 -0.358846c0,-0.0156299 -0.000401575,-0.028374 -0.00134646,-0.0383976 -0.000940945,-0.00985433 -0.00228346,-0.0178425 -0.00430315,-0.0236181 -0.00201575,-0.00577559 -0.00443701,-0.00985433 -0.00752756,-0.0122323 -0.00296063,-0.00238189 -0.00672835,-0.00339764 -0.0111654,-0.00339764 -0.00524409,0 -0.0100866,0.00186614 -0.0146575,0.00594488 -0.00444094,0.00390945 -0.00914567,0.0103661 -0.0143898,0.0193701 -0.00511024,0.00900394 -0.0107598,0.0208976 -0.0169488,0.0356811 -0.00605118,0.0146102 -0.0134488,0.0327913 -0.0217835,0.0543701l0 0.321126 -0.0626732 0 0 -0.3495c0,-0.0181811 -0.000405512,-0.0329646 -0.00134646,-0.0441772 -0.000940945,-0.0113819 -0.00242126,-0.0202205 -0.00430315,-0.0265039 -0.00201575,-0.0062874 -0.00457087,-0.0105354 -0.00779921,-0.0129134 -0.00309449,-0.00238189 -0.00685827,-0.00339764 -0.0114291,-0.00339764 -0.00470866,0 -0.00914567,0.00152756 -0.013315,0.0049252 -0.00416929,0.00322835 -0.00887795,0.00934646 -0.0139882,0.0178425 -0.00511024,0.00866535 -0.0108937,0.0205551 -0.0172126,0.0353386 -0.00618504,0.0149528 -0.0137205,0.0341535 -0.0224606,0.0572598l0 0.321126 -0.0629409 0 0 -0.499701 0.052315 0 0.00322835 0.0949803c0.00685827,-0.0188622 0.0134488,-0.035 0.0199055,-0.0482559 0.00645669,-0.013252 0.0130433,-0.0239567 0.0199016,-0.0321102 0.00672441,-0.00815748 0.014122,-0.0141024 0.0217913,-0.0178425 0.00779921,-0.00390551 0.0164055,-0.00577559 0.0258189,-0.00577559 0.021252,0 0.0373858,0.00883465 0.0485472,0.0263346 0.0110315,0.0176732 0.0165472,0.0448583 0.0165472,0.0817283 0.00618504,-0.0173307 0.0123701,-0.032622 0.0184213,-0.0460472 0.00605118,-0.0134213 0.0126417,-0.0248071 0.0195,-0.0339803 0.00699606,-0.00900787 0.0146614,-0.0159724 0.0231339,-0.0208976 0.00833858,-0.00475984 0.0180197,-0.0071378 0.0290512,-0.0071378 0.0497598,0 0.0745,0.048252 0.0745,0.14476l0 0.363945 -0.0630709 0z"/>
  <polygon id="1234567891011121314151617" class="fil1" points="8.06465,6.16752 7.79433,6.97798 7.72897,6.97798 7.99929,6.16752 "/>
  <path class="fil1" d="M0.152748 5.29295c0,-0.200098 0.0536024,-0.356697 0.161091,-0.469799 0.107488,-0.113098 0.246126,-0.169787 0.416193,-0.169787 0.111138,0 0.211606,0.0266614 0.30085,0.0797008 0.0892441,0.0533228 0.157441,0.127413 0.204311,0.222551 0.0468661,0.0948583 0.0701614,0.202906 0.0701614,0.323303 0,0.122358 -0.0244173,0.231811 -0.073811,0.328071 -0.0493937,0.0965433 -0.119272,0.169508 -0.209642,0.219185 -0.0906457,0.0496732 -0.188031,0.0743701 -0.292709,0.0743701 -0.113661,0 -0.214976,-0.0272244 -0.30422,-0.0822283 -0.0895236,-0.0547283 -0.157161,-0.129657 -0.203185,-0.224516 -0.0460276,-0.0945787 -0.0690394,-0.195047 -0.0690394,-0.30085zm0.164457 0.00252362c0,0.145374 0.0390118,0.259598 0.117031,0.343228 0.0782992,0.0836339 0.176244,0.125449 0.294114,0.125449 0.120114,0 0.218902,-0.0420984 0.296358,-0.126571 0.0774567,-0.0844724 0.116469,-0.204307 0.116469,-0.359504 0,-0.0979449 -0.0168386,-0.183543 -0.0499567,-0.256791 -0.0331142,-0.073248 -0.0816654,-0.129937 -0.145374,-0.17035 -0.0639843,-0.0401299 -0.135551,-0.0603386 -0.214972,-0.0603386 -0.113098,0 -0.210201,0.0387323 -0.291587,0.116469 -0.0813898,0.0774567 -0.122083,0.207114 -0.122083,0.388409z"/>
  <path id="1" class="fil1" d="M1.41396 5.88006l0 -0.120114 0.555957 -0.637906c-0.0631457,0.00337008 -0.118713,0.00477165 -0.166984,0.00477165l-0.356138 0 0 -0.119835 0.713677 0 0 0.0976654 -0.472602 0.554272 -0.0912087 0.101031c0.0662323,-0.00477165 0.128535,-0.00729921 0.186626,-0.00729921l0.403567 0 0 0.127413 -0.772894 0z"/>
  <path id="12" class="fil1" d="M2.9039 5.77229c-0.0550079,0.0465866 -0.107768,0.0794213 -0.158283,0.0987874 -0.0507953,0.0190827 -0.10524,0.028626 -0.163335,0.028626 -0.0959803,0 -0.169508,-0.0232953 -0.22115,-0.0701614 -0.0513543,-0.0468661 -0.0771732,-0.106925 -0.0771732,-0.17961 0,-0.0429409 0.00953937,-0.0819488 0.029185,-0.117311 0.0193661,-0.0353622 0.0449016,-0.0637047 0.0763346,-0.0850354 0.0317126,-0.0213268 0.0670748,-0.0376063 0.106646,-0.0485512 0.0289055,-0.00757874 0.072685,-0.0151535 0.131343,-0.0221693 0.119551,-0.014315 0.207673,-0.0311535 0.264083,-0.0510787 0.000562992,-0.0202047 0.00084252,-0.0331142 0.00084252,-0.0384488 0,-0.0603386 -0.0140315,-0.102996 -0.0420945,-0.127409 -0.0376063,-0.0336772 -0.0940157,-0.0502362 -0.168386,-0.0502362 -0.0696024,0 -0.120961,0.0120669 -0.154354,0.0364843 -0.0331181,0.0244134 -0.0575354,0.0676339 -0.0735315,0.129657l-0.144531 -0.0199291c0.0131929,-0.0617402 0.0347992,-0.111976 0.0648307,-0.149862 0.0300276,-0.0381654 0.0738071,-0.0676339 0.13078,-0.088122 0.0569685,-0.0204882 0.122921,-0.0308701 0.198134,-0.0308701 0.0746496,0 0.134988,0.00898031 0.181575,0.0263819 0.0465906,0.0176772 0.0808268,0.0395709 0.103,0.0662283 0.0218898,0.0266614 0.0370433,0.0600591 0.0460236,0.100752 0.00477165,0.0252598 0.00729528,0.0707244 0.00729528,0.136394l0 0.197291c0,0.137799 0.00309055,0.224795 0.00954331,0.261 0.00617323,0.0364843 0.0188031,0.071563 0.0373268,0.104961l-0.154634 0c-0.0151575,-0.0305906 -0.0252598,-0.0665118 -0.0294685,-0.107768zm-0.0123504 -0.330598c-0.0538819,0.0221732 -0.134425,0.0406929 -0.241634,0.0561299 -0.0608976,0.00870079 -0.104118,0.0185236 -0.129094,0.0294685 -0.0252598,0.0109449 -0.0449055,0.0269409 -0.058374,0.0482677 -0.013752,0.0210512 -0.0207677,0.0443425 -0.0207677,0.0701614 0,0.0395709 0.0151535,0.0724055 0.0449016,0.0987874 0.029748,0.0260984 0.0735276,0.0392913 0.131063,0.0392913 0.0569685,0 0.107764,-0.0123504 0.152106,-0.0373268 0.0443425,-0.0249764 0.0771772,-0.0592165 0.0979449,-0.102433 0.0159961,-0.0333976 0.0238543,-0.0827913 0.0238543,-0.147902l0 -0.0544449z"/>
  <path id="123" class="fil1" d="M3.26902 5.88006l0 -0.873083 0.133024 0 0 0.132185c0.0339567,-0.0617441 0.0653898,-0.102717 0.0942953,-0.122362 0.028626,-0.0196457 0.0603386,-0.029748 0.0948583,-0.029748 0.0499528,0 0.100472,0.0159961 0.15211,0.0477087l-0.0510787 0.137516c-0.0359213,-0.0216102 -0.072126,-0.0322756 -0.108327,-0.0322756 -0.0325551,0 -0.0614606,0.00982283 -0.0872835,0.029189 -0.0258189,0.0196457 -0.0440591,0.0465866 -0.0550039,0.0811063 -0.0165591,0.0524803 -0.0246969,0.110012 -0.0246969,0.172594l0 0.457169 -0.147898 0z"/>
  <polygon id="1234" class="fil1" points="3.83199,5.88006 3.83199,4.67469 3.98017,4.67469 3.98017,5.36199 4.33041,5.00697 4.52181,5.00697 4.18813,5.33083 4.55577,5.88006 4.37307,5.88006 4.08457,5.43355 3.98017,5.53402 3.98017,5.88006 "/>
  <path id="12345" class="fil1" d="M4.71181 5.88006l0 -0.168665 0.168665 0 0 0.168665c0,0.0620236 -0.0109449,0.111976 -0.0328346,0.150146 -0.0221693,0.0378858 -0.0569685,0.0673543 -0.104398,0.0884016l-0.0412559 -0.0634252c0.0311535,-0.013752 0.0541654,-0.0339567 0.0690394,-0.0603386 0.014874,-0.0266614 0.0230118,-0.0648307 0.0246969,-0.114783l-0.0839134 0z"/>
  <path id="123456" class="fil1" d="M5.62278 5.88006l0 -1.20537 0.240232 0 0.285134 0.853437c0.0263819,0.0794252 0.0457441,0.138921 0.0575315,0.178492 0.013752,-0.0437795 0.0350787,-0.108331 0.0642677,-0.193366l0.2885 -0.838563 0.214693 0 0 1.20537 -0.153791 0 0 -1.00891 -0.350244 1.00891 -0.143969 0 -0.348559 -1.02603 0 1.02603 -0.153795 0z"/>
  <path id="1234567" class="fil1" d="M6.98194 5.29295c0,-0.200098 0.0536024,-0.356697 0.161091,-0.469799 0.107488,-0.113098 0.246126,-0.169787 0.416193,-0.169787 0.111138,0 0.211606,0.0266614 0.30085,0.0797008 0.0892441,0.0533228 0.157441,0.127413 0.204311,0.222551 0.0468661,0.0948583 0.0701614,0.202906 0.0701614,0.323303 0,0.122358 -0.0244173,0.231811 -0.073811,0.328071 -0.0493937,0.0965433 -0.119272,0.169508 -0.209642,0.219185 -0.0906457,0.0496732 -0.188031,0.0743701 -0.292709,0.0743701 -0.113661,0 -0.214976,-0.0272244 -0.30422,-0.0822283 -0.0895236,-0.0547283 -0.157161,-0.129657 -0.203185,-0.224516 -0.0460276,-0.0945787 -0.0690394,-0.195047 -0.0690394,-0.30085zm0.164457 0.00252362c0,0.145374 0.0390118,0.259598 0.117031,0.343228 0.0782992,0.0836339 0.176244,0.125449 0.294114,0.125449 0.120114,0 0.218902,-0.0420984 0.296358,-0.126571 0.0774567,-0.0844724 0.116469,-0.204307 0.116469,-0.359504 0,-0.0979449 -0.0168386,-0.183543 -0.0499567,-0.256791 -0.0331142,-0.073248 -0.0816654,-0.129937 -0.145374,-0.17035 -0.0639843,-0.0401299 -0.135551,-0.0603386 -0.214972,-0.0603386 -0.113098,0 -0.210201,0.0387323 -0.291587,0.116469 -0.0813898,0.0774567 -0.122083,0.207114 -0.122083,0.388409z"/>
  <path class="fil1" d="M0.247232 7.97466l0 -0.886441 0.392965 0c0.0790472,0 0.139106,0.00804724 0.180177,0.0239409 0.0410709,0.0158937 0.0738858,0.0439606 0.0986535,0.0842047 0.0245591,0.0404528 0.0367362,0.0850354 0.0367362,0.13374 0,0.0629488 -0.0202244,0.115787 -0.0610906,0.158921 -0.0406575,0.0431339 -0.103606,0.0705866 -0.188638,0.0823504 0.0311614,0.0148583 0.0546929,0.0295118 0.0707913,0.0441654 0.0342598,0.031374 0.0666614,0.0707913 0.0974134,0.11785l0.154173 0.241268 -0.147567 0 -0.117228 -0.184512c-0.0342638,-0.0530433 -0.0625394,-0.0939055 -0.0848268,-0.121976 -0.0220866,-0.0282756 -0.0418976,-0.0480866 -0.0594409,-0.0592323 -0.0175433,-0.0113543 -0.0352913,-0.0191969 -0.0534567,-0.0237362 -0.0134134,-0.0026811 -0.0350827,-0.00412598 -0.0654252,-0.00412598l-0.136008 0 0 0.393583 -0.117228 0zm0.117228 -0.495126l0.252205 0c0.0534567,0 0.0955591,-0.0055748 0.125693,-0.0167205 0.0303386,-0.0111417 0.053248,-0.0288937 0.0689331,-0.053248 0.015685,-0.0243543 0.0235276,-0.0507717 0.0235276,-0.0794606 0,-0.0418937 -0.015063,-0.0763622 -0.0456102,-0.103398 -0.0303386,-0.0270394 -0.0784291,-0.0404528 -0.144268,-0.0404528l-0.28048 0 0 0.29328z"/>
  <path id="1" class="fil1" d="M1.12624 7.2135l0 -0.12528 0.108976 0 0 0.12528 -0.108976 0zm0 0.761161l0 -0.642075 0.108976 0 0 0.642075 -0.108976 0z"/>
  <path id="12" class="fil1" d="M1.81992 7.73937l0.106909 0.0140354c-0.0115591,0.0736811 -0.0414843,0.131469 -0.0897795,0.173157 -0.0480906,0.0416929 -0.107323,0.0625394 -0.177496,0.0625394 -0.0877126,0 -0.158504,-0.028689 -0.211756,-0.0860669 -0.0534528,-0.057374 -0.0802835,-0.139724 -0.0802835,-0.247047 0,-0.0693465 0.0115591,-0.130024 0.0344685,-0.182035 0.0231142,-0.0520079 0.0579921,-0.0910157 0.105051,-0.117024 0.0468504,-0.0260039 0.0980354,-0.0390039 0.153142,-0.0390039 0.0697559,0 0.126929,0.017748 0.171094,0.0530394 0.044374,0.0352953 0.0728543,0.0852402 0.0854449,0.150252l-0.105878 0.0163031c-0.0101142,-0.0431339 -0.0278622,-0.0755354 -0.0534528,-0.0974134 -0.0255945,-0.0216732 -0.0565512,-0.0326102 -0.092878,-0.0326102 -0.0548976,0 -0.0994764,0.0196063 -0.13374,0.0590276 -0.0342598,0.0392126 -0.0513898,0.101339 -0.0513898,0.18637 0,0.0862717 0.0165118,0.149012 0.0497402,0.188224 0.0330236,0.0390079 0.0761575,0.0586181 0.129406,0.0586181 0.0427244,0 0.0782205,-0.0132126 0.106909,-0.0394213 0.028689,-0.0262126 0.0468504,-0.0664567 0.0544882,-0.120945z"/>
  <path id="123" class="fil1" d="M2.02011 7.97466l0 -0.886441 0.108768 0 0 0.318047c0.0507717,-0.0588228 0.114961,-0.0883346 0.192354,-0.0883346 0.0474724,0 0.088748,0.00949213 0.123835,0.0282717 0.0350866,0.0185787 0.0602677,0.0445827 0.0753307,0.0776024 0.0150669,0.0330236 0.0227047,0.0811142 0.0227047,0.143854l0 0.407 -0.108972 0 0 -0.407c0,-0.0542795 -0.0117638,-0.0939055 -0.0352953,-0.118673 -0.0235276,-0.0247677 -0.0569606,-0.0373543 -0.100098,-0.0373543 -0.0321969,0 -0.0625354,0.00846063 -0.0910157,0.0251772 -0.0284843,0.0167165 -0.0487087,0.0394213 -0.0606811,0.0681102 -0.0121732,0.0284803 -0.0181614,0.0681063 -0.0181614,0.118465l0 0.351276 -0.108768 0z"/>
  <path id="1234" class="fil1" d="M3.69909 7.66383l0.117437 0.0297205c-0.0245591,0.0961772 -0.0689331,0.169654 -0.132709,0.220425 -0.0639803,0.050563 -0.141996,0.0757441 -0.234457,0.0757441 -0.0955591,0 -0.173161,-0.0194016 -0.233016,-0.0582008 -0.0598504,-0.0390079 -0.105465,-0.0953543 -0.13663,-0.169035 -0.0311614,-0.0738858 -0.0468504,-0.153138 -0.0468504,-0.23776 0,-0.0922559 0.0175433,-0.172748 0.0528386,-0.241476 0.0352913,-0.0687244 0.0854449,-0.120941 0.150661,-0.156646 0.0650157,-0.0357087 0.13663,-0.0534567 0.214854,-0.0534567 0.0887441,0 0.163252,0.0224961 0.223724,0.0676969 0.0604724,0.0451969 0.102575,0.108559 0.126311,0.190496l-0.115374 0.0272441c-0.0206378,-0.0646024 -0.0503583,-0.111449 -0.0895709,-0.140965 -0.0390079,-0.0295118 -0.0881299,-0.0441654 -0.147571,-0.0441654 -0.0681063,0 -0.124862,0.0163031 -0.170681,0.0489134 -0.0458189,0.032815 -0.0780157,0.0765709 -0.0963858,0.131677 -0.0185748,0.0548976 -0.0278622,0.111654 -0.0278622,0.170063 0,0.0755394 0.0109409,0.141169 0.032815,0.197516 0.0220866,0.0561378 0.0561378,0.0982402 0.102579,0.126102 0.046437,0.0278622 0.0965866,0.041689 0.150661,0.041689 0.0656339,0 0.12115,-0.0189882 0.166764,-0.0567559 0.0456102,-0.0379764 0.0763622,-0.0943189 0.0924606,-0.168827z"/>
  <polygon id="12345" class="fil1" points="3.94469,7.97466 3.94469,7.08822 4.05346,7.08822 4.05346,7.97466 "/>
  <path id="123456" class="fil1" d="M4.2227 7.2135l0 -0.12528 0.108976 0 0 0.12528 -0.108976 0zm0 0.761161l0 -0.642075 0.108976 0 0 0.642075 -0.108976 0z"/>
  <path id="1234567" class="fil1" d="M4.49741 7.97466l0 -0.642075 0.0978307 0 0 0.0912205c0.0472638,-0.0705827 0.11537,-0.105874 0.204323,-0.105874 0.0388031,0 0.0743031,0.00701575 0.106705,0.0208425 0.0326102,0.0140354 0.0567559,0.0321969 0.0728543,0.0549016 0.0163071,0.0224961 0.0274528,0.0493268 0.0340551,0.0802835 0.00392126,0.0202283 0.00598425,0.0555197 0.00598425,0.105878l0 0.394823 -0.108972 0 0 -0.390693c0,-0.0441693 -0.00412598,-0.0773976 -0.0125906,-0.0994803 -0.00846063,-0.021878 -0.0235276,-0.0394213 -0.0449921,-0.0524252 -0.0216693,-0.0132087 -0.0468504,-0.019811 -0.0759488,-0.019811 -0.0464409,0 -0.0862717,0.0148583 -0.120122,0.0441654 -0.0336378,0.0295157 -0.0503583,0.0852402 -0.0503583,0.167591l0 0.350654 -0.108768 0z"/>
  <path id="12345678" class="fil1" d="M5.16611 8.02791l0.105878 0.015685c0.00433465,0.0326102 0.0167205,0.0563465 0.0367402,0.0714134 0.0270354,0.0200197 0.0639803,0.0301299 0.110622,0.0301299 0.0505669,0 0.0893661,-0.0101102 0.116819,-0.0301299 0.0274488,-0.0202283 0.045815,-0.0485039 0.0555157,-0.084622 0.00577953,-0.0222913 0.00825591,-0.0687283 0.00784252,-0.139724 -0.0474685,0.0559291 -0.106701,0.084 -0.177701,0.084 -0.0883346,0 -0.15665,-0.0317835 -0.204945,-0.0955591 -0.0482913,-0.0635669 -0.0726457,-0.140138 -0.0726457,-0.229091 0,-0.0612992 0.0111417,-0.11785 0.0332283,-0.169654 0.0222874,-0.0518031 0.0544843,-0.0918425 0.0965906,-0.120118 0.0421024,-0.0280669 0.0916339,-0.0423071 0.148394,-0.0423071 0.0757441,0 0.13828,0.030752 0.187402,0.0920472l0 -0.0773937 0.100508 0 0 0.55498c0,0.0998898 -0.0103189,0.17089 -0.0305433,0.212579 -0.0204331,0.041689 -0.0526299,0.0747126 -0.0967953,0.0988622 -0.0441693,0.0241457 -0.0984488,0.0363228 -0.163047,0.0363228 -0.0765709,0 -0.138488,-0.0173346 -0.185547,-0.0518031 -0.0472598,-0.0344685 -0.0699646,-0.0862717 -0.068315,-0.155618zm0.0899882 -0.38574c0,0.0842047 0.0167165,0.145709 0.0503583,0.184303 0.0334331,0.0388031 0.0753307,0.0579961 0.125689,0.0579961 0.0499488,0 0.0918465,-0.0191929 0.125693,-0.0575827 0.0338465,-0.0385945 0.0507717,-0.0988583 0.0507717,-0.181209 0,-0.0786339 -0.0173386,-0.137866 -0.0522165,-0.177701 -0.034878,-0.0398346 -0.0769843,-0.0598543 -0.126102,-0.0598543 -0.0482953,0 -0.0893661,0.0196063 -0.123421,0.0590276 -0.0338504,0.0392165 -0.0507717,0.097622 -0.0507717,0.17502z"/>
  <path id="123456789" class="fil1" d="M5.87485 7.97466l0 -0.642075 0.0972126 0 0 0.0899843c0.0202244,-0.0313701 0.0470551,-0.0567559 0.0804921,-0.0757441 0.0334331,-0.0191969 0.0716142,-0.0288937 0.114339,-0.0288937 0.0474685,0 0.0864764,0.00990551 0.116815,0.0297165 0.0305472,0.019815 0.0520118,0.0472638 0.0643937,0.0827638 0.0509764,-0.0749213 0.117024,-0.11248 0.198339,-0.11248 0.0637756,0 0.112689,0.017748 0.146949,0.0530394 0.0342638,0.0352953 0.0513937,0.0895748 0.0513937,0.162843l0 0.440846 -0.10815 0 0 -0.404524c0,-0.0435472 -0.00350787,-0.0749173 -0.0105236,-0.0941142 -0.00722441,-0.0189843 -0.0200197,-0.0344646 -0.0383898,-0.0462283 -0.0185748,-0.0115591 -0.0404528,-0.0175433 -0.0654252,-0.0175433 -0.0452008,0 -0.0825551,0.0150669 -0.112484,0.0451969 -0.0297165,0.0299291 -0.0447835,0.0780157 -0.0447835,0.144063l0 0.37315 -0.108768 0 0 -0.417114c0,-0.0485 -0.00887402,-0.0848228 -0.026626,-0.108972 -0.017748,-0.0241457 -0.0466417,-0.0363228 -0.0870945,-0.0363228 -0.0305472,0 -0.0588228,0.00804724 -0.0848268,0.0243543 -0.0260039,0.0160984 -0.0449921,0.039626 -0.0565512,0.0705827 -0.0117638,0.0311654 -0.0175433,0.0759528 -0.0175433,0.134362l0 0.33311 -0.108768 0z"/>
  <path id="12345678910" class="fil1" d="M7.32535 7.89541c-0.0404528,0.0342598 -0.0792559,0.0584055 -0.116406,0.0726457 -0.0373543,0.0140354 -0.0773937,0.0210551 -0.120118,0.0210551 -0.0705827,0 -0.124657,-0.0171299 -0.162634,-0.0515984 -0.0377677,-0.0344685 -0.0567559,-0.0786339 -0.0567559,-0.132091 0,-0.0315748 0.00701575,-0.0602638 0.0214646,-0.0862677 0.0142402,-0.0260079 0.0330197,-0.0468504 0.0561378,-0.0625394 0.0233228,-0.015685 0.0493268,-0.0276535 0.0784252,-0.0357047 0.0212598,-0.00557087 0.0534567,-0.0111457 0.0965906,-0.0163031 0.0879213,-0.0105276 0.152728,-0.0229094 0.194213,-0.037563 0.000413386,-0.0148622 0.00061811,-0.0243543 0.00061811,-0.0282756 0,-0.044374 -0.0103189,-0.0757441 -0.0309567,-0.0937008 -0.0276575,-0.0247677 -0.0691417,-0.0369449 -0.123835,-0.0369449 -0.051185,0 -0.0889528,0.00887402 -0.113512,0.0268307 -0.0243543,0.0179567 -0.042311,0.0497402 -0.0540748,0.0953543l-0.106291 -0.0146535c0.00970079,-0.0454055 0.0255945,-0.0823504 0.0476772,-0.110213 0.0220827,-0.0280709 0.0542795,-0.0497402 0.0961772,-0.0648071 0.0418976,-0.0150669 0.0903976,-0.0227008 0.145709,-0.0227008 0.0549016,0 0.0992756,0.00660236 0.133535,0.0193976 0.0342598,0.0130039 0.0594409,0.0291024 0.0757441,0.0487087 0.0160984,0.0196063 0.0272441,0.0441693 0.0338504,0.0740945 0.00350787,0.0185748 0.00536614,0.0520079 0.00536614,0.100303l0 0.145094c0,0.101335 0.00226772,0.165315 0.00701575,0.191941 0.00453937,0.0268307 0.0138268,0.0526299 0.0274488,0.077189l-0.11372 0c-0.0111457,-0.0224961 -0.0185748,-0.0489134 -0.0216693,-0.079252zm-0.00908268 -0.243126c-0.039626,0.0163031 -0.0988583,0.0299252 -0.177701,0.0412756 -0.0447874,0.00639764 -0.0765709,0.013622 -0.094937,0.0216693 -0.0185748,0.00805118 -0.0330236,0.019815 -0.0429291,0.0355 -0.0101142,0.0154803 -0.0152756,0.0326102 -0.0152756,0.0515984 0,0.0291024 0.0111457,0.053248 0.0330236,0.0726496 0.021878,0.0191929 0.0540748,0.0288937 0.0963858,0.0288937 0.0418937,0 0.079252,-0.00908268 0.111862,-0.0274488 0.0326063,-0.0183701 0.0567559,-0.0435472 0.0720276,-0.0753346 0.0117638,-0.0245591 0.0175433,-0.0608819 0.0175433,-0.108764l0 -0.0400394z"/>
  <path id="1234567891011" class="fil1" d="M7.5951 7.97466l0 -0.642075 0.0978307 0 0 0.0912205c0.0472638,-0.0705827 0.11537,-0.105874 0.204323,-0.105874 0.0388031,0 0.0743031,0.00701575 0.106705,0.0208425 0.0326102,0.0140354 0.0567559,0.0321969 0.0728543,0.0549016 0.0163071,0.0224961 0.0274528,0.0493268 0.0340551,0.0802835 0.00392126,0.0202283 0.00598425,0.0555197 0.00598425,0.105878l0 0.394823 -0.108972 0 0 -0.390693c0,-0.0441693 -0.00412598,-0.0773976 -0.0125906,-0.0994803 -0.00846063,-0.021878 -0.0235276,-0.0394213 -0.0449921,-0.0524252 -0.0216693,-0.0132087 -0.0468504,-0.019811 -0.0759488,-0.019811 -0.0464409,0 -0.0862717,0.0148583 -0.120122,0.0441654 -0.0336378,0.0295157 -0.0503583,0.0852402 -0.0503583,0.167591l0 0.350654 -0.108768 0z"/>
 </g>
</svg>
